%TF.GenerationSoftware,KiCad,Pcbnew,(6.0.4)*%
%TF.CreationDate,2022-04-07T23:24:54+05:30*%
%TF.ProjectId,ASSIGN_2,41535349-474e-45f3-922e-6b696361645f,rev?*%
%TF.SameCoordinates,Original*%
%TF.FileFunction,Copper,L1,Top*%
%TF.FilePolarity,Positive*%
%FSLAX46Y46*%
G04 Gerber Fmt 4.6, Leading zero omitted, Abs format (unit mm)*
G04 Created by KiCad (PCBNEW (6.0.4)) date 2022-04-07 23:24:54*
%MOMM*%
%LPD*%
G01*
G04 APERTURE LIST*
G04 Aperture macros list*
%AMRoundRect*
0 Rectangle with rounded corners*
0 $1 Rounding radius*
0 $2 $3 $4 $5 $6 $7 $8 $9 X,Y pos of 4 corners*
0 Add a 4 corners polygon primitive as box body*
4,1,4,$2,$3,$4,$5,$6,$7,$8,$9,$2,$3,0*
0 Add four circle primitives for the rounded corners*
1,1,$1+$1,$2,$3*
1,1,$1+$1,$4,$5*
1,1,$1+$1,$6,$7*
1,1,$1+$1,$8,$9*
0 Add four rect primitives between the rounded corners*
20,1,$1+$1,$2,$3,$4,$5,0*
20,1,$1+$1,$4,$5,$6,$7,0*
20,1,$1+$1,$6,$7,$8,$9,0*
20,1,$1+$1,$8,$9,$2,$3,0*%
G04 Aperture macros list end*
%TA.AperFunction,SMDPad,CuDef*%
%ADD10RoundRect,0.075600X-0.194400X0.224400X-0.194400X-0.224400X0.194400X-0.224400X0.194400X0.224400X0*%
%TD*%
%TA.AperFunction,ComponentPad*%
%ADD11C,1.508000*%
%TD*%
%TA.AperFunction,ComponentPad*%
%ADD12R,1.508000X1.508000*%
%TD*%
%TA.AperFunction,SMDPad,CuDef*%
%ADD13RoundRect,0.090000X-0.210000X0.525000X-0.210000X-0.525000X0.210000X-0.525000X0.210000X0.525000X0*%
%TD*%
%TA.AperFunction,SMDPad,CuDef*%
%ADD14R,0.940000X1.020000*%
%TD*%
%TA.AperFunction,SMDPad,CuDef*%
%ADD15R,1.100000X0.380000*%
%TD*%
%TA.AperFunction,SMDPad,CuDef*%
%ADD16R,0.380000X1.100000*%
%TD*%
%TA.AperFunction,SMDPad,CuDef*%
%ADD17R,0.500000X0.600000*%
%TD*%
%TA.AperFunction,SMDPad,CuDef*%
%ADD18R,0.558800X1.320800*%
%TD*%
%TA.AperFunction,SMDPad,CuDef*%
%ADD19R,0.250000X1.700000*%
%TD*%
%TA.AperFunction,SMDPad,CuDef*%
%ADD20R,0.500000X1.700000*%
%TD*%
%TA.AperFunction,SMDPad,CuDef*%
%ADD21R,3.200000X1.600000*%
%TD*%
%TA.AperFunction,Conductor*%
%ADD22C,0.250000*%
%TD*%
G04 APERTURE END LIST*
D10*
%TO.P,C1,1*%
%TO.N,Net-(C1-Pad1)*%
X117270000Y-73660000D03*
%TO.P,C1,2*%
%TO.N,GND*%
X116410000Y-73660000D03*
%TD*%
D11*
%TO.P,J3,2,2*%
%TO.N,GND*%
X128290000Y-68580000D03*
D12*
%TO.P,J3,1,1*%
%TO.N,unconnected-(J3-Pad1)*%
X130790000Y-68580000D03*
%TD*%
D11*
%TO.P,J2,2,2*%
%TO.N,GND*%
X128290000Y-83820000D03*
D12*
%TO.P,J2,1,1*%
%TO.N,Net-(J2-Pad1)*%
X130790000Y-83820000D03*
%TD*%
D11*
%TO.P,J1,2,2*%
%TO.N,GND*%
X128290000Y-76200000D03*
D12*
%TO.P,J1,1,1*%
%TO.N,Net-(R1-Pad1)*%
X130790000Y-76200000D03*
%TD*%
D13*
%TO.P,Q1,1*%
%TO.N,Net-(Q1-Pad1)*%
X117790000Y-77680000D03*
%TO.P,Q1,2*%
%TO.N,GND*%
X115890000Y-77680000D03*
%TO.P,Q1,3*%
%TO.N,Net-(Q1-Pad3)*%
X116840000Y-79800000D03*
%TD*%
D14*
%TO.P,R1,1*%
%TO.N,Net-(R1-Pad1)*%
X122710000Y-78740000D03*
%TO.P,R1,2*%
%TO.N,Net-(Q1-Pad1)*%
X121130000Y-78740000D03*
%TD*%
D15*
%TO.P,R6,1*%
%TO.N,Net-(D1-PadA)*%
X121920000Y-75937000D03*
%TO.P,R6,2*%
%TO.N,Net-(C1-Pad1)*%
X121920000Y-76463000D03*
%TD*%
D16*
%TO.P,R5,1*%
%TO.N,GND*%
X124723000Y-83820000D03*
%TO.P,R5,2*%
%TO.N,Net-(J2-Pad1)*%
X124197000Y-83820000D03*
%TD*%
D15*
%TO.P,R4,1*%
%TO.N,Net-(Q1-Pad3)*%
X116840000Y-81017000D03*
%TO.P,R4,2*%
%TO.N,Net-(Q2-Pad1)*%
X116840000Y-81543000D03*
%TD*%
D16*
%TO.P,R3,1*%
%TO.N,Net-(Q1-Pad3)*%
X119117000Y-81280000D03*
%TO.P,R3,2*%
%TO.N,Net-(C1-Pad1)*%
X119643000Y-81280000D03*
%TD*%
D17*
%TO.P,R2,1*%
%TO.N,GND*%
X124008000Y-81280000D03*
%TO.P,R2,2*%
%TO.N,Net-(Q1-Pad1)*%
X124912000Y-81280000D03*
%TD*%
D18*
%TO.P,Q2,1,B*%
%TO.N,Net-(Q2-Pad1)*%
X118364000Y-84836000D03*
%TO.P,Q2,2,C*%
%TO.N,Net-(J2-Pad1)*%
X120396000Y-84836000D03*
%TO.P,Q2,3,E*%
%TO.N,Net-(C1-Pad1)*%
X119380000Y-82804000D03*
%TD*%
D19*
%TO.P,D1,K*%
%TO.N,GND*%
X121195000Y-73660000D03*
%TO.P,D1,A*%
%TO.N,Net-(D1-PadA)*%
X122645000Y-73660000D03*
D20*
%TO.P,D1,HEATPAD*%
%TO.N,N/C*%
X121920000Y-73660000D03*
%TD*%
D21*
%TO.P,C2,1*%
%TO.N,Net-(C1-Pad1)*%
X116880000Y-68580000D03*
%TO.P,C2,2*%
%TO.N,GND*%
X121880000Y-68580000D03*
%TD*%
D22*
%TO.N,GND*%
X119340000Y-66040000D02*
X121880000Y-68580000D01*
X114955489Y-67455489D02*
X116370978Y-66040000D01*
X116370978Y-66040000D02*
X119340000Y-66040000D01*
X114955489Y-72205489D02*
X114955489Y-67455489D01*
X116410000Y-73660000D02*
X114955489Y-72205489D01*
%TO.N,Net-(C1-Pad1)*%
X117004520Y-75781739D02*
X117004520Y-68704520D01*
X117004520Y-68704520D02*
X116880000Y-68580000D01*
X117685781Y-76463000D02*
X117004520Y-75781739D01*
%TO.N,GND*%
X115890000Y-77680000D02*
X116410000Y-77160000D01*
X116410000Y-77160000D02*
X116410000Y-73660000D01*
%TO.N,Net-(C1-Pad1)*%
X116840000Y-77308781D02*
X117685781Y-76463000D01*
X117685781Y-76463000D02*
X121920000Y-76463000D01*
X116840000Y-78051219D02*
X116840000Y-77308781D01*
X117966022Y-78740000D02*
X117528781Y-78740000D01*
X117528781Y-78740000D02*
X116840000Y-78051219D01*
X119643000Y-80416978D02*
X117966022Y-78740000D01*
X119643000Y-81280000D02*
X119643000Y-80416978D01*
%TO.N,Net-(Q1-Pad3)*%
X116840000Y-79800000D02*
X116840000Y-81028489D01*
%TO.N,GND*%
X115890000Y-77680000D02*
X115890000Y-77150000D01*
X121195000Y-69265000D02*
X121195000Y-73660000D01*
X121880000Y-68580000D02*
X121195000Y-69265000D01*
X128290000Y-68580000D02*
X121880000Y-68580000D01*
X124723000Y-82290022D02*
X124008000Y-81575022D01*
X124723000Y-83820000D02*
X124723000Y-82290022D01*
X124008000Y-81575022D02*
X124008000Y-81280000D01*
X124723000Y-83820000D02*
X128290000Y-83820000D01*
%TO.N,Net-(D1-PadA)*%
X122645000Y-75212000D02*
X122645000Y-73660000D01*
X121920000Y-75937000D02*
X122645000Y-75212000D01*
%TO.N,Net-(C1-Pad1)*%
X122783022Y-76463000D02*
X122794511Y-76451511D01*
X121920000Y-76463000D02*
X122783022Y-76463000D01*
%TO.N,Net-(Q1-Pad1)*%
X117790000Y-77680000D02*
X118850000Y-78740000D01*
%TO.N,Net-(J2-Pad1)*%
X124412489Y-84898511D02*
X129711489Y-84898511D01*
X124208489Y-84694511D02*
X124412489Y-84898511D01*
X124208489Y-83820000D02*
X124208489Y-84694511D01*
X123192489Y-84836000D02*
X124208489Y-83820000D01*
X129711489Y-84898511D02*
X130790000Y-83820000D01*
X120396000Y-84836000D02*
X123192489Y-84836000D01*
%TO.N,Net-(C1-Pad1)*%
X119643000Y-82541000D02*
X119643000Y-81280000D01*
X119380000Y-82804000D02*
X119643000Y-82541000D01*
%TO.N,Net-(Q2-Pad1)*%
X116840000Y-81543000D02*
X116840000Y-83312000D01*
X116840000Y-83312000D02*
X118364000Y-84836000D01*
%TO.N,Net-(Q1-Pad1)*%
X124582511Y-80082013D02*
X124582511Y-81280000D01*
X124075009Y-79574511D02*
X124582511Y-80082013D01*
X121964511Y-79574511D02*
X124075009Y-79574511D01*
X121130000Y-78740000D02*
X121964511Y-79574511D01*
X118850000Y-78740000D02*
X121130000Y-78740000D01*
%TO.N,Net-(Q1-Pad3)*%
X119128489Y-81280000D02*
X117648489Y-79800000D01*
X117648489Y-79800000D02*
X116840000Y-79800000D01*
%TO.N,Net-(R1-Pad1)*%
X128250000Y-78740000D02*
X130790000Y-76200000D01*
X122710000Y-78740000D02*
X128250000Y-78740000D01*
%TO.N,GND*%
X122350000Y-69050000D02*
X121880000Y-68580000D01*
%TD*%
M02*
